<svg width="16" height="17" viewBox="0 0 16 17" fill="none" xmlns="http://www.w3.org/2000/svg">
<g clip-path="url(#clip0_10_42)">
<path d="M15.9843 5.07215C15.9469 4.2334 15.8094 3.65677 15.6124 3.15711C15.4093 2.62674 15.0967 2.15189 14.6872 1.75715C14.2871 1.35627 13.8026 1.04476 13.2713 0.847455C12.7619 0.653156 12.1805 0.517521 11.3304 0.48054C10.4739 0.440428 10.202 0.431152 8.02967 0.431152C5.85737 0.431152 5.58546 0.440428 4.73215 0.477408C3.88201 0.514389 3.29754 0.650145 2.79122 0.844323C2.25352 1.04476 1.77222 1.35314 1.37212 1.75715C0.96579 2.15189 0.650176 2.62987 0.450064 3.1541C0.253126 3.65677 0.115648 4.23027 0.0781653 5.06902C0.0375079 5.91403 0.0281067 6.18229 0.0281067 8.32548C0.0281067 10.4687 0.0375079 10.7369 0.0749908 11.5788C0.112474 12.4175 0.250074 12.9942 0.447012 13.4938C0.650176 14.0242 0.96579 14.4991 1.37212 14.8938C1.77222 15.2947 2.25669 15.6062 2.78804 15.8035C3.29754 15.9978 3.87883 16.1334 4.7291 16.1704C5.58229 16.2075 5.85432 16.2167 8.02661 16.2167C10.1989 16.2167 10.4708 16.2075 11.3241 16.1704C12.1743 16.1334 12.7587 15.9978 13.2651 15.8035C14.3403 15.3933 15.1905 14.5546 15.6062 13.4938C15.803 12.9912 15.9406 12.4175 15.9781 11.5788C16.0156 10.7369 16.025 10.4687 16.025 8.32548C16.025 6.18229 16.0218 5.91403 15.9843 5.07215ZM14.5435 11.5171C14.5091 12.2881 14.3778 12.7044 14.2684 12.9819C13.9996 13.6696 13.4464 14.2154 12.7493 14.4806C12.468 14.5886 12.043 14.7181 11.2647 14.7519C10.4208 14.789 10.1677 14.7982 8.03284 14.7982C5.89803 14.7982 5.64175 14.789 4.80089 14.7519C4.01949 14.7181 3.59753 14.5886 3.31622 14.4806C2.96935 14.3541 2.65362 14.1537 2.39734 13.8916C2.13167 13.6356 1.9285 13.3272 1.8003 12.985C1.69091 12.7075 1.55966 12.2881 1.52535 11.5203C1.48774 10.6877 1.47846 10.4378 1.47846 8.33162C1.47846 6.22541 1.48774 5.97257 1.52535 5.1431C1.55966 4.37217 1.69091 3.95587 1.8003 3.67833C1.9285 3.33599 2.13167 3.02461 2.40052 2.77165C2.65985 2.50953 2.97241 2.30909 3.3194 2.18273C3.6007 2.0748 4.02583 1.94531 4.80406 1.91134C5.64798 1.87436 5.9012 1.86508 8.03589 1.86508C10.1739 1.86508 10.427 1.87436 11.2678 1.91134C12.0492 1.94531 12.4712 2.0748 12.7525 2.18273C13.0994 2.30909 13.4151 2.50953 13.6714 2.77165C13.9371 3.02762 14.1402 3.33599 14.2684 3.67833C14.3778 3.95587 14.5091 4.37518 14.5435 5.1431C14.581 5.97571 14.5904 6.22541 14.5904 8.33162C14.5904 10.4378 14.581 10.6845 14.5435 11.5171Z" fill="white"/>
<path d="M8.02967 4.27051C5.76055 4.27051 3.91949 6.08677 3.91949 8.3256C3.91949 10.5644 5.76055 12.3807 8.02967 12.3807C10.2989 12.3807 12.1398 10.5644 12.1398 8.3256C12.1398 6.08677 10.2989 4.27051 8.02967 4.27051ZM8.02967 10.956C6.55758 10.956 5.3635 9.77808 5.3635 8.3256C5.3635 6.87312 6.55758 5.69516 8.02967 5.69516C9.50188 5.69516 10.6958 6.87312 10.6958 8.3256C10.6958 9.77808 9.50188 10.956 8.02967 10.956Z" fill="white"/>
<path d="M13.262 4.10959C13.262 4.63228 12.8324 5.05609 12.3024 5.05609C11.7725 5.05609 11.3428 4.63228 11.3428 4.10959C11.3428 3.58678 11.7725 3.16309 12.3024 3.16309C12.8324 3.16309 13.262 3.58678 13.262 4.10959Z" fill="white"/>
</g>
<defs>
<clipPath id="clip0_10_42">
<rect width="16" height="15.7856" fill="white" transform="translate(0 0.431152)"/>
</clipPath>
</defs>
</svg>
