<svg width="14" height="15" viewBox="0 0 14 15" fill="none" xmlns="http://www.w3.org/2000/svg">
<g clip-path="url(#clip0_10_23)">
<path d="M12.6 0.417969H1.4C0.63 0.417969 0 1.03953 0 1.79921V12.8491C0 13.6088 0.63 14.2303 1.4 14.2303H12.6C13.37 14.2303 14 13.6088 14 12.8491V1.79921C14 1.03953 13.37 0.417969 12.6 0.417969ZM4.2 12.1585H2.1V5.94292H4.2V12.1585ZM3.15 4.76886C2.45 4.76886 1.89 4.21637 1.89 3.52575C1.89 2.83513 2.45 2.28264 3.15 2.28264C3.85 2.28264 4.41 2.83513 4.41 3.52575C4.41 4.21637 3.85 4.76886 3.15 4.76886ZM11.9 12.1585H9.8V8.4982C9.8 7.94574 9.31 7.46228 8.75 7.46228C8.19 7.46228 7.7 7.94574 7.7 8.4982V12.1585H5.6V5.94292H7.7V6.77166C8.05 6.21916 8.82 5.80479 9.45 5.80479C10.78 5.80479 11.9 6.90978 11.9 8.22196V12.1585Z" fill="white"/>
</g>
<defs>
<clipPath id="clip0_10_23">
<rect width="14" height="13.8124" fill="white" transform="translate(0 0.417969)"/>
</clipPath>
</defs>
</svg>
