<svg width="20" height="21" viewBox="0 0 20 21" fill="none" xmlns="http://www.w3.org/2000/svg">
<g clip-path="url(#clip0_10_4)">
<path d="M20 4.20607C19.2563 4.52795 18.4637 4.7413 17.6375 4.84489C18.4875 4.3442 19.1363 3.55738 19.4412 2.60902C18.6488 3.07519 17.7738 3.40446 16.8412 3.58822C16.0887 2.7977 15.0162 2.30811 13.8462 2.30811C11.5763 2.30811 9.74875 4.12591 9.74875 6.35439C9.74875 6.67503 9.77625 6.98335 9.84375 7.27686C6.435 7.11284 3.41875 5.50098 1.3925 3.04559C1.03875 3.65111 0.83125 4.3442 0.83125 5.09031C0.83125 6.49128 1.5625 7.73316 2.6525 8.45214C1.99375 8.43981 1.3475 8.25112 0.8 7.95391C0.8 7.96624 0.8 7.98228 0.8 7.99831C0.8 9.9641 2.22125 11.5969 4.085 11.9731C3.75125 12.0631 3.3875 12.1063 3.01 12.1063C2.7475 12.1063 2.4825 12.0915 2.23375 12.0372C2.765 13.6392 4.2725 14.8169 6.065 14.8552C4.67 15.9318 2.89875 16.5805 0.98125 16.5805C0.645 16.5805 0.3225 16.5657 0 16.525C1.81625 17.6805 3.96875 18.3403 6.29 18.3403C13.835 18.3403 17.96 12.1741 17.96 6.82919C17.96 6.65037 17.9538 6.47771 17.945 6.30629C18.7588 5.73653 19.4425 5.02495 20 4.20607Z" fill="white"/>
</g>
<defs>
<clipPath id="clip0_10_4">
<rect width="20" height="19.732" fill="white" transform="translate(0 0.458008)"/>
</clipPath>
</defs>
</svg>
